<svg width="75" height="80" viewBox="0 0 149 160" fill="none" xmlns="http://www.w3.org/2000/svg">
<g clip-path="url(#clip0_2331_1578)">
<path d="M31.0492 159.787V158.08V154.667V153.6V136.96L8.43585 143.147L7.58251 143.36L4.16918 144.213L2.46251 144.853V143.147V139.733V138.667V112.427V112.213V111.36V110.933L2.67585 110.507L3.10252 109.867L3.31585 109.653L7.58251 103.253L7.79584 103.04L8.43585 102.187L8.64918 101.76L9.07585 101.547L9.92918 101.333H10.1425L10.9958 101.12H11.2092L12.4892 100.693L13.7692 100.267C5.44918 97.0667 0.755847 90.24 0.115847 79.5733C-0.524153 69.3333 1.60918 64.64 3.52918 59.9467L3.95585 58.88C9.92918 46.9333 21.2358 37.76 30.1958 33.7067V32L30.4092 18.3467V18.1333V17.28V16.8533L30.6225 16.4267L31.0492 15.7867L31.2625 15.5733L35.9558 9.17333V8.96L36.3825 8.32L36.5958 7.89333L37.0225 7.68L37.8759 7.46667H38.0892L38.7292 7.25333H38.9425L40.0092 6.82666C41.2892 6.4 53.8758 1.70666 71.7958 0.426664C74.7825 0.213331 77.9825 0 80.9692 0C84.5959 0 88.4359 0.213331 91.8492 0.426664C92.7025 0.426664 114.249 2.34667 116.383 28.5867C119.156 29.44 126.836 31.7867 128.756 32.4267C130.249 32.8533 135.583 34.7733 143.689 37.5467L144.116 37.76L144.543 37.9733L146.249 38.6133L147.103 38.8267V39.8933V41.8133V42.24V43.0933V43.3067V44.5867L146.889 64V66.1333V66.56V68.2667V68.48V69.3333V69.76L146.676 70.1867L146.249 70.8267L146.036 71.04L141.983 77.8667L141.769 78.2933L140.703 79.7867C143.903 83.84 146.249 87.8933 147.103 92.16C148.809 98.9867 149.236 109.653 144.969 117.333L144.756 117.547L144.543 117.76C143.049 120.747 138.356 129.92 127.476 133.12C124.489 133.973 121.076 134.4 117.449 134.4C116.169 134.4 114.676 134.4 113.396 134.187C111.689 137.6 107.423 145.28 101.876 148.48C97.1825 151.467 92.9158 151.893 90.7825 151.893C89.9292 151.893 89.5025 151.893 89.0758 151.893H88.6492H88.0092C86.0892 151.68 82.2492 151.253 77.5559 151.253C75.6359 151.253 73.9292 151.253 72.0092 151.467C61.5558 152.107 52.1692 153.6 43.6359 156.16L41.5025 156.8L41.0759 157.013L39.5825 157.44L37.0225 158.293L36.1692 158.507L32.9692 159.36L31.0492 159.787Z" fill="white"/>
<path d="M143.263 93.0134C141.556 85.9734 135.796 78.9334 126.196 72.32L137.929 75.9467L138.356 76.16L138.569 75.7334L143.049 69.5467L143.263 69.3334V69.12V67.4134V66.7734V64.64L143.476 45.2267V43.9467V43.7334V42.88V42.4534L143.049 42.24C142.836 42.24 130.249 37.9734 127.689 37.12C125.343 36.48 115.103 33.28 112.756 32.4267C111.903 7.04003 92.2759 5.12003 91.4226 5.12003C88.0093 4.69336 84.3826 4.69336 80.9693 4.69336C77.9826 4.69336 74.9959 4.90669 72.2226 5.12003C54.5159 6.18669 42.1426 10.88 41.5026 11.0934L40.4359 11.52H40.2226L39.5826 11.7334H39.3692L39.1559 11.9467L34.4626 18.3467L34.2492 18.56V18.7734L34.0359 32.2134V36.48C24.2226 40.32 17.1826 45.8667 13.1292 52.48L12.9159 52.6934C12.7026 53.12 12.4892 53.5467 12.0626 54.1867C11.6359 54.8267 8.43591 58.24 7.36924 60.5867L6.94258 61.6534C5.02258 66.1334 3.31591 70.1867 3.74258 79.36C4.59591 92.3734 11.6359 98.3467 25.9292 98.3467C28.0626 98.3467 30.8359 98.3467 33.1826 98.1334C35.9559 97.92 40.4359 97.0667 40.4359 97.0667L39.3692 97.28L39.5826 97.7067L37.4492 98.3467L13.3426 104.96L12.0626 105.173H11.8492L10.9959 105.387H10.7826L10.5692 105.6L6.30258 112L6.08924 112.213V112.427V138.667V139.733L6.94258 139.52L34.4626 131.84V132.053L34.6759 153.813V154.88L35.5292 154.667L38.0892 153.813L39.5826 153.387L40.0092 153.173L42.1426 152.533C51.1026 149.973 60.7026 148.267 71.3692 147.627C73.2893 147.413 75.2092 147.413 77.1292 147.413C82.2492 147.413 86.0892 147.84 88.0092 148.053H88.4359H88.6492H89.0759H89.2893C89.2893 148.053 89.7159 148.053 90.5693 148.053C92.2759 148.053 95.6892 147.627 99.5292 145.28C104.649 142.08 109.556 133.12 110.623 130.133C111.689 130.347 114.036 130.56 117.023 130.56C120.436 130.56 123.423 130.133 125.983 129.493C135.156 126.72 139.209 118.613 140.703 116.053C140.916 115.84 140.916 115.627 140.916 115.627C144.756 109.013 144.756 99.6267 143.263 93.0134ZM68.1693 56.5334C68.1693 56.5334 74.5692 55.2534 88.0092 56.5334V61.8667C88.0092 61.8667 76.9159 61.2267 67.9559 62.72L68.1693 56.5334ZM68.1693 96.2134V90.0267C68.1693 90.0267 74.7826 89.1734 88.0092 90.4534V95.7867C88.2226 95.7867 77.1292 94.72 68.1693 96.2134Z" fill="#002B5C"/>
<path d="M141.556 93.4399C139.423 84.4799 130.889 77.2266 124.063 72.7466C118.729 69.1199 112.116 67.6266 111.689 67.6266L111.049 67.4133V52.2666C112.756 52.6933 114.463 53.3333 116.169 53.9733L116.383 57.8133V58.8799V59.0933H116.596L117.663 59.5199L138.996 66.1333L141.129 66.7733L141.556 66.9866V66.3466V64.2133L141.769 44.7999V43.7333V43.5199H141.556L140.489 43.0933C140.276 43.0933 121.076 36.4799 111.049 33.7066V33.0666C110.836 8.74661 92.7026 7.03994 91.8493 6.82661C85.6626 6.18661 79.2626 6.18661 72.8626 6.61328C55.5826 7.89328 43.2093 12.5866 42.7826 12.5866L41.7159 13.0133H41.5026V13.2266V14.2933L41.2893 28.7999V30.9333V31.3599L41.7159 31.1466L43.6359 30.7199L47.9026 29.6533V34.1333L46.4093 34.5599C31.0493 38.1866 20.5959 44.5866 15.2626 53.3333C11.2093 60.1599 9.92927 68.2666 11.8493 77.8666C13.5559 86.3999 21.6626 90.6666 34.6759 89.8133C38.3026 89.5999 41.0759 88.9599 41.2893 88.9599C41.9293 88.7466 42.7826 88.5333 44.0626 88.1066H44.2759C45.1293 87.8933 46.1959 87.4666 47.4759 87.2533V102.4L45.9826 102.827L40.8626 104.107V101.76V99.6266V99.1999L40.4359 99.4133L38.3026 100.053L14.6226 106.453L13.3426 106.667H13.1293V106.88V108.16V127.787V129.92V130.56L13.5559 130.347L15.6893 129.707L47.2626 120.96L47.9026 120.747V124.373L43.2093 125.653L41.7159 126.293H41.5026V127.787V142.72V144.853V145.493L41.9293 145.28L44.0626 144.64C53.8759 141.653 63.9026 139.947 73.7159 139.093C83.5293 138.453 90.3559 139.093 92.7026 139.307C92.9159 139.307 93.1293 139.307 93.3426 139.307C94.4093 139.307 95.2626 139.307 96.3293 139.307C100.809 138.88 104.436 137.173 106.996 133.76C110.409 129.28 110.409 122.453 110.409 120.107C115.743 121.6 120.223 122.24 124.489 121.813C128.329 121.6 131.743 120.533 135.156 118.827C143.263 114.987 143.263 101.333 141.556 93.4399ZM66.4626 49.4933L67.1026 49.2799C67.5293 49.2799 70.0893 48.6399 74.1426 48.4266C78.6226 47.9999 85.6626 47.9999 93.9826 48.8533V49.2799V64.2133C88.6493 63.3599 82.4626 63.1466 75.4226 63.7866C72.2226 63.9999 69.2359 64.4266 66.2493 64.8533L66.4626 49.4933ZM41.5026 70.1866C41.7159 64.2133 41.9293 57.8133 41.7159 54.8266L47.4759 53.3333L48.1159 53.1199V67.8399V68.2666C45.3426 69.1199 42.9959 69.7599 41.5026 70.1866ZM93.7693 116.693V120.107C86.9426 119.467 79.9026 119.253 73.2893 119.68C70.3026 119.893 67.7426 120.107 66.2493 120.533V116.267H66.4626C68.1693 116.053 69.8759 115.84 71.7959 115.84C80.7559 115.2 88.4359 115.627 94.1959 116.267L93.7693 116.693ZM73.0759 97.4933C69.2359 97.7066 66.8893 98.1333 66.2493 98.3466V83.4133V83.1999H66.4626C68.3826 82.9866 70.3026 82.7733 72.6493 82.5599C83.3159 81.7066 93.5559 83.1999 93.5559 83.1999H93.9826V98.3466C84.8093 97.0666 77.5559 97.0666 73.0759 97.4933ZM73.5026 29.6533C71.1559 29.8666 68.8093 30.0799 66.4626 30.5066V26.0266C69.0226 25.5999 71.5826 25.1733 74.1426 25.1733C83.3159 24.5333 90.7826 25.5999 93.9826 26.2399V30.5066C88.4359 29.4399 81.3959 29.0133 73.5026 29.6533ZM115.743 103.04C114.249 102.613 112.543 101.973 111.049 101.547V100.907V86.3999L116.169 87.8933L115.743 103.04Z" fill="white"/>
<path d="M38.3026 107.733V106.88V102.827L15.6892 109.013V127.147L47.4759 117.973V105.173L39.1559 107.52L38.3026 107.733ZM118.516 51.84L118.943 52.0534V52.48L119.156 57.1734L138.996 63.36L139.209 45.44C135.583 44.16 112.329 36.48 106.143 35.2C101.449 34.1334 92.4892 32.2134 80.9692 32.2134C76.4892 32.2134 70.9426 32.4267 66.4626 33.0667V46.5067C68.3826 46.2934 74.1426 45.44 81.3959 45.44C90.3559 45.44 104.009 46.72 118.516 51.84ZM138.783 94.08C136.649 85.5467 127.689 78.5067 122.569 74.88C118.729 72.32 113.396 70.6134 111.476 70.1867L111.263 83.6267L118.516 85.7601L118.943 85.9734V86.6134L118.303 105.813V106.88L117.449 106.453C101.663 101.12 88.2226 100.053 79.9026 100.053C73.2892 100.053 68.1692 100.693 66.6759 100.907L66.2492 113.493C70.7292 113.067 76.0626 112.853 80.5426 112.853C96.7559 112.853 106.356 116.053 106.783 116.267C112.969 118.4 118.089 119.467 122.569 119.467C126.836 119.467 130.463 118.613 134.303 116.693C140.276 113.493 140.489 101.333 138.783 94.08ZM31.4759 87.2534C36.5959 87.2534 40.6492 86.4 40.8626 86.1867C41.2892 85.9734 42.3559 85.76 43.8492 85.3334C48.5426 84.0534 57.2892 81.4934 66.2492 80C70.3026 79.36 74.9959 78.9334 79.9026 78.9334C86.0892 78.9334 91.8492 79.3601 93.7692 79.5734V66.3467C90.5692 65.92 86.7292 65.7067 82.8892 65.7067C62.1959 65.7067 39.7959 72.96 39.3692 73.1734L38.3026 73.6V72.5334C38.9426 64.4267 38.5159 53.12 38.5159 52.9067V52.2667L39.1559 52.0534L47.6892 49.7067V36.48C22.7292 42.6667 10.5692 56.7467 14.4092 77.0134C16.3292 85.5467 24.6492 87.2534 31.4759 87.2534Z" fill="#213E96"/>
<path d="M96.7558 49.4933V98.3466C100.596 98.9866 106.143 100.053 108.276 100.693V100.053V51.84C104.222 50.7733 98.6758 49.92 96.7558 49.4933ZM96.5425 117.12L96.3292 122.453V123.307H95.4758C90.7825 122.667 86.0892 122.453 81.3958 122.453C71.1558 122.453 64.3292 123.947 64.3292 123.947L63.4758 124.16V123.307L63.6892 83.84C61.1292 84.2666 54.5158 85.9733 50.6758 86.8266V126.08V126.72L50.2492 126.933L44.7025 128.64V142.08C60.9158 137.387 74.5692 136.533 83.1025 136.533C88.2225 136.533 91.8492 136.96 93.3425 136.96C93.5558 136.96 93.7692 136.96 93.9825 136.96C94.4092 136.96 94.8358 136.96 95.2625 136.96C98.2492 136.96 102.303 136.107 105.289 132.48C108.276 128.427 108.062 121.813 108.062 119.893C104.009 118.613 98.6758 117.547 96.5425 117.12ZM50.6758 26.6666V27.52V67.84C55.1558 66.7733 61.5558 65.4933 63.4758 65.0666L63.6892 24.32V23.68L64.3292 23.4666C69.2358 22.4 74.5692 21.9733 79.9025 21.9733C89.2892 21.9733 95.6892 23.4666 96.1158 23.4666L96.7558 23.68V24.32V30.08C101.236 30.72 106.356 32 108.276 32.4266C108.276 10.4533 92.2758 9.59996 91.6358 9.38663C88.4358 9.1733 85.0225 8.95996 81.6092 8.95996C62.1958 8.95996 47.0492 13.8666 44.0625 14.9333V27.9466L49.8225 26.6666H50.6758Z" fill="#FFDD00"/>
<path d="M110.409 145.707C108.703 145.707 107.423 146.987 107.423 148.693C107.423 150.4 108.703 151.68 110.409 151.68C111.903 151.68 113.396 150.4 113.396 148.693C113.396 146.773 112.116 145.707 110.409 145.707ZM110.409 151.253C108.916 151.253 108.063 150.187 108.063 148.693C108.063 147.2 109.129 146.133 110.409 146.133C111.689 146.133 112.756 147.2 112.756 148.693C112.756 150.187 111.689 151.253 110.409 151.253ZM111.903 148.053C111.903 147.413 111.476 146.987 110.623 146.987H109.343V150.4H109.983V148.907H110.409L111.263 150.4H111.903L111.049 148.907C111.476 148.907 111.903 148.693 111.903 148.053ZM109.769 148.48V147.413H110.409C110.836 147.413 111.049 147.413 111.049 147.84C111.049 148.267 110.623 148.267 110.196 148.267H109.769V148.48Z" fill="white"/>
</g>
<defs>
<clipPath id="clip0_2331_1578">
<rect width="148.323" height="159.787" fill="white"/>
</clipPath>
</defs>
</svg>
